<svg width="644" height="666" viewBox="0 0 644 666" fill="none" xmlns="http://www.w3.org/2000/svg">
<path d="M322.673 3.21387C429.325 224.049 535.202 443.357 641.522 663.501C487.847 663.501 335.528 663.501 182.24 663.501C183.484 661.053 184.397 658.951 185.558 657.051C199.269 634.647 213.119 612.331 226.637 589.812C229.429 585.176 232.498 583.477 237.778 583.506C325.493 583.621 413.18 583.477 500.895 583.42C503.687 583.42 506.48 583.42 510.488 583.42C508.774 579.734 507.502 576.912 506.175 574.148C430.817 418.218 355.459 262.261 279.99 106.389C277.447 101.148 277.115 97.0593 279.797 91.6457C294.061 62.8211 307.911 33.795 322.673 3.21387Z" stroke="url(#paint0_linear)" stroke-width="2" stroke-miterlimit="10"/>
<path d="M225.338 200.868C240.736 233.119 255.387 263.556 269.651 294.195C270.785 296.614 269.79 300.876 268.49 303.611C249.858 342.773 230.977 381.792 212.179 420.868C211.073 423.2 210.05 425.59 208.392 429.334C212.179 429.334 214.861 429.334 217.57 429.334C249.305 429.334 281.041 429.477 312.776 429.19C318.112 429.132 321.125 430.917 323.862 435.64C337.241 458.792 350.981 481.771 365.494 506.333C361.43 506.333 358.776 506.333 356.122 506.333C296.798 506.333 237.446 506.42 178.121 506.218C172.703 506.189 169.966 507.975 167.561 513.014C144.644 561.045 121.34 608.904 98.4507 656.964C95.8798 662.349 92.9771 664.134 87.3101 664.048C61.518 663.731 35.726 663.904 9.90625 663.904C7.69471 663.904 5.45553 663.702 2 663.53C76.5012 509.127 150.588 355.674 225.338 200.868Z" stroke="url(#paint1_linear)" stroke-width="2" stroke-miterlimit="10"/>
<defs>
<linearGradient id="paint0_linear" x1="708.5" y1="1254.43" x2="34.4495" y2="-548.685" gradientUnits="userSpaceOnUse">
<stop stop-color="#06A3F8"/>
<stop offset="1" stop-color="#2EF1BB"/>
</linearGradient>
<linearGradient id="paint1_linear" x1="339.896" y1="300.341" x2="7.2125" y2="671.478" gradientUnits="userSpaceOnUse">
<stop stop-color="#06A3F8"/>
<stop offset="1" stop-color="#2EF0BB"/>
</linearGradient>
</defs>
</svg>
