<svg width="383" height="371" viewBox="0 0 383 371" fill="none" xmlns="http://www.w3.org/2000/svg">
<g clip-path="url(#clip0)">
<path d="M319.431 49.2077C317.074 47.1854 315.142 46.2395 315.142 46.2069L315.731 45C315.83 45.0326 317.827 46.0438 320.315 48.1639L319.431 49.2077Z" fill="#DDE4F7"/>
<path d="M321.559 179.68C319.136 177.07 316.91 174.396 314.978 171.754L316.059 170.971C317.958 173.58 320.151 176.19 322.541 178.766L321.559 179.68ZM309.511 163.012C307.874 159.881 306.564 156.684 305.582 153.455L306.892 153.063C307.841 156.195 309.118 159.326 310.722 162.392L309.511 163.012ZM303.618 143.343C303.487 141.778 303.389 140.147 303.389 138.548C303.389 136.722 303.487 134.863 303.683 133.003L305.026 133.134C304.829 134.96 304.764 136.754 304.764 138.548C304.764 140.114 304.829 141.68 304.993 143.213L303.618 143.343ZM306.859 123.218L305.55 122.859C306.401 119.695 307.448 116.499 308.791 113.106L310.068 113.596C308.725 116.955 307.678 120.119 306.859 123.218ZM314.193 104.3L312.981 103.712C314.291 101.005 315.797 98.1347 317.696 94.612L318.874 95.2643C316.976 98.7545 315.502 101.625 314.193 104.3ZM323.785 86.2944L322.574 85.6746L322.607 85.6094C324.309 82.4781 325.651 79.3794 326.535 76.4111L327.845 76.8025C326.928 79.836 325.586 83.0326 323.818 86.2618L323.785 86.2944ZM327.943 66.5279C327.812 63.1356 327.027 59.9064 325.553 56.9708L326.765 56.3837C328.336 59.515 329.187 62.9073 329.318 66.4953L327.943 66.5279Z" fill="#DDE4F7"/>
<path d="M333.116 190C331.675 188.826 330.3 187.652 328.958 186.477L329.875 185.466C331.184 186.64 332.559 187.815 333.967 188.956L333.116 190Z" fill="#392054"/>
<path d="M310.493 25.9313L308.692 47.6875L296.022 33.4661L255 0L289.966 10.9923C289.966 10.9923 307.186 19.3425 307.972 20.4189C308.791 21.5279 310.493 25.9313 310.493 25.9313Z" fill="#D4DBEE"/>
<path d="M329.089 16.6026L255 0L310.493 25.9313L329.089 16.6026Z" fill="#DDE4F7"/>
<path d="M282.01 42.0446L304.829 30.6936L255 0L282.01 42.0446Z" fill="#DDE4F7"/>
</g>
<path d="M348.711 328.947L350.191 343.515L358.333 347.959C358.333 347.959 346.737 353.638 338.349 345.984L337.856 329.688L348.711 328.947Z" fill="#F4D8D5"/>
<path d="M345.257 241.296C350.931 251.172 353.398 334.379 353.398 334.379L335.882 337.589C335.882 337.589 325.52 269.443 320.586 251.666C320.093 249.197 340.323 232.654 345.257 241.296Z" fill="#BED5FC"/>
<path d="M238.432 229.197C238.432 229.197 240.899 253.147 258.416 253.147C276.179 253.147 340.569 263.764 343.283 261.789C345.75 259.814 352.165 243.024 341.063 237.098C332.181 232.407 270.998 218.333 270.998 218.333L238.432 229.197Z" fill="#BED5FC"/>
<path d="M310.225 330.182L306.277 344.256L312.445 351.416C312.445 351.416 299.616 352.404 294.682 342.28L300.356 326.972L310.225 330.182Z" fill="#F4D8D5"/>
<path d="M320.093 240.308C324.04 250.925 313.185 333.639 313.185 333.639L294.929 333.885C294.929 333.885 294.435 264.999 292.708 246.727C292.461 244.258 316.639 231.172 320.093 240.308Z" fill="#BED5FC"/>
<path d="M335.142 333.639C335.142 333.639 325.274 274.628 322.56 260.308C317.379 259.567 308.497 263.024 300.849 259.567C284.813 252.407 269.024 236.358 269.024 236.358C269.024 236.358 294.435 235.37 306.524 237.345C318.366 239.567 324.78 241.049 328.234 246.975C331.688 252.9 339.829 332.157 339.829 332.157L335.142 333.639Z" fill="#87A9FB"/>
<path d="M317.379 330.429C317.379 330.429 317.132 337.836 316.886 338.083C316.639 338.33 291.721 337.836 290.734 337.836C289.994 337.836 290.981 329.441 290.981 329.441C290.981 329.441 315.652 327.713 317.379 330.429Z" fill="#5B85F7"/>
<path d="M213.762 243.271C213.762 243.271 217.709 270.925 235.225 268.702C252.741 266.48 319.599 271.171 320.093 268.209C322.56 250.925 318.859 243.271 308.744 242.037C298.629 240.802 243.367 232.901 243.367 232.901L213.762 243.271Z" fill="#BED5FC"/>
<path d="M289.501 354.626C290.241 356.601 303.07 360.551 307.264 363.514C311.705 366.724 327.494 371.168 328.974 370.675C329.221 370.675 329.714 370.181 329.961 369.934C330.208 369.44 330.701 369.193 330.701 368.452C331.688 366.724 332.181 364.008 331.194 363.02C330.701 362.527 328.234 360.305 324.78 357.835C317.379 352.157 306.277 344.256 306.277 344.256C306.277 344.256 303.316 346.478 293.942 342.033C293.942 342.033 290.981 347.712 289.747 351.416C289.501 352.897 289.254 354.132 289.501 354.626Z" fill="url(#paint0_linear)"/>
<path d="M319.599 366.724L329.961 369.934C330.208 369.44 330.701 369.193 330.701 368.452C331.688 366.724 332.181 364.008 331.195 363.021C330.701 362.527 328.234 360.305 324.78 357.835C323.053 359.07 320.339 361.786 319.599 366.724Z" fill="url(#paint1_linear)"/>
<path d="M289.501 354.626C290.241 356.601 303.07 360.552 307.264 363.514C311.705 366.724 327.494 371.169 328.974 370.675C329.715 370.428 330.208 369.687 330.701 368.453C327.494 367.712 317.626 365.49 313.432 363.268C308.744 360.552 303.563 356.848 300.603 355.86C298.383 355.12 292.708 352.65 289.748 351.416C289.501 352.897 289.254 354.132 289.501 354.626Z" fill="white"/>
<path d="M304.797 351.663C305.29 351.663 305.784 351.663 306.031 351.169C307.511 348.7 310.718 348.453 310.718 348.453C311.458 348.453 311.952 347.712 311.952 347.219C311.952 346.478 311.211 345.984 310.718 345.984C310.471 345.984 306.277 346.231 304.057 349.935C303.81 350.428 303.81 351.169 304.55 351.663H304.797Z" fill="white"/>
<path d="M310.718 355.366C311.211 355.613 311.951 355.366 312.198 354.626C312.938 353.144 315.405 352.404 316.145 352.404C316.886 352.404 317.379 351.663 317.132 350.922C317.132 350.181 316.392 349.688 315.652 349.934C315.405 349.934 311.211 350.428 309.731 353.638C309.731 354.379 309.978 355.119 310.718 355.366C310.471 355.366 310.718 355.366 310.718 355.366Z" fill="white"/>
<path d="M356.112 327.466C356.112 327.466 357.345 334.626 357.099 335.12C356.852 335.614 332.428 340.058 331.441 340.305C330.701 340.552 329.961 331.91 329.961 331.91C329.961 331.91 353.892 324.997 356.112 327.466Z" fill="#5B85F7"/>
<path d="M338.595 359.317C340.075 361.045 353.151 359.811 358.578 361.045C363.759 362.28 380.042 360.799 381.522 359.564C381.769 359.317 382.016 359.07 382.016 358.576C382.262 358.083 382.262 357.589 382.262 356.848C382.509 354.873 382.016 352.404 380.782 351.663C380.042 351.169 377.081 350.428 372.887 349.194C364.006 346.725 350.684 343.268 350.684 343.268C350.684 343.268 348.71 346.231 338.348 345.737C338.348 345.737 337.608 351.91 337.855 356.107C338.102 357.836 338.102 359.07 338.595 359.317Z" fill="url(#paint2_linear)"/>
<path d="M371.162 359.564L382.017 358.576C382.263 358.083 382.263 357.589 382.263 356.848C382.51 354.873 382.017 352.404 380.783 351.663C380.043 351.169 377.083 350.428 372.889 349.194C371.408 351.169 369.928 354.626 371.162 359.564Z" fill="url(#paint3_linear)"/>
<path d="M338.596 359.317C340.076 361.045 353.152 359.811 358.579 361.046C363.76 362.28 380.043 360.799 381.523 359.564C382.017 359.07 382.263 358.083 382.51 356.848C379.303 357.342 369.188 358.823 364.747 358.329C359.319 357.589 353.152 355.86 350.191 356.107C347.971 356.107 341.803 356.107 338.349 355.86C338.103 357.836 338.103 359.07 338.596 359.317Z" fill="white"/>
<path d="M351.918 350.922C352.412 350.922 352.905 350.428 352.905 349.934C353.398 347.218 356.112 345.737 356.112 345.737C356.606 345.49 357.099 344.749 356.606 344.009C356.359 343.515 355.619 343.021 354.879 343.515C354.632 343.515 350.931 345.49 350.191 349.44C350.191 350.181 350.438 350.675 351.178 350.922C351.671 351.169 351.671 351.169 351.918 350.922Z" fill="white"/>
<path d="M358.579 352.404C359.319 352.404 359.813 351.91 359.813 351.169C359.813 349.441 362.033 347.959 362.527 347.712C363.02 347.465 363.267 346.725 363.02 345.984C362.773 345.49 362.033 345.243 361.293 345.49C361.046 345.49 357.346 347.712 357.099 351.169C357.346 351.663 357.839 352.404 358.579 352.404Z" fill="white"/>
<path d="M257.676 94.8801C257.676 94.8801 263.843 133.644 280.373 150.681C269.518 165.249 208.334 162.779 198.219 160.31C198.219 160.31 203.4 107.472 214.995 96.1147C226.344 84.757 257.676 94.8801 257.676 94.8801Z" fill="#000038"/>
<path d="M259.403 147.965C265.324 145.249 270.998 148.953 272.725 155.372C274.452 161.792 282.1 201.297 281.606 203.766C281.113 205.988 278.646 216.111 267.051 210.186C258.909 197.099 253.728 162.779 253.482 159.323C253.728 155.619 255.949 149.447 259.403 147.965Z" fill="#F4D8D5"/>
<path d="M270.751 163.026C270.751 163.026 276.426 170.434 272.972 179.322C269.518 188.211 271.491 197.84 272.478 200.309C273.465 202.778 280.62 210.679 280.62 210.679C280.62 210.679 274.205 214.136 268.037 213.395C261.87 212.655 257.922 190.927 257.922 190.927C257.922 190.927 266.557 173.89 266.804 173.643C267.051 173.397 270.751 163.026 270.751 163.026Z" fill="#DBB5BF"/>
<path d="M210.801 243.271C249.534 252.9 275.932 217.099 275.932 217.099C271.985 213.395 265.077 203.272 264.83 199.568C264.337 182.779 274.452 180.063 273.712 170.433C272.725 160.31 263.597 146.977 263.597 146.977C263.597 146.977 217.462 144.261 204.88 151.422C204.88 151.422 218.449 187.223 217.462 203.025C217.462 204.26 217.216 205.247 216.969 206.235C216.229 209.445 210.801 243.271 210.801 243.271Z" fill="url(#paint4_linear)"/>
<path d="M248.548 133.398L249.288 147.225C249.288 147.225 248.054 155.372 242.873 155.372C238.679 155.372 228.564 149.447 226.591 146.484L225.604 123.028L248.548 133.398Z" fill="#F4D8D5"/>
<path d="M249.041 144.015C249.041 144.015 241.393 145.743 235.965 140.064C230.291 134.385 231.771 130.188 231.771 130.188L249.041 137.101V144.015Z" fill="#DBB5BF"/>
<path d="M243.367 140.805H244.107C253.728 139.323 257.429 130.435 256.442 120.065C255.702 113.398 255.209 92.9049 255.209 92.9049C254.962 91.6704 253.975 90.6828 252.742 90.9297L221.41 95.374C220.176 95.6209 219.436 96.8554 219.436 98.09L223.137 124.756C224.617 135.126 233.745 142.286 243.367 140.805Z" fill="#F4D8D5"/>
<path d="M255.948 103.769V112.41C255.948 112.41 235.225 114.386 227.084 109.941C218.942 105.497 225.357 101.547 225.357 101.547L235.472 100.559C235.472 100.312 254.962 100.065 255.948 103.769Z" fill="#DBB5BF"/>
<path d="M263.843 108.46C264.584 104.263 261.623 93.6457 257.676 90.4359C250.274 84.2632 226.344 78.8313 221.656 92.658C221.656 92.658 215.242 93.8925 213.762 98.5838C212.281 103.522 211.295 126.484 223.137 126.484C222.396 123.768 226.097 117.102 227.331 113.645C228.317 110.188 226.344 103.522 226.344 103.522C226.344 103.522 241.393 112.411 263.843 108.46Z" fill="#000038"/>
<path d="M227.331 116.608C227.331 116.608 226.097 111.423 221.903 113.151C215.735 115.62 218.449 126.237 226.344 124.756C229.057 124.262 229.304 118.583 227.331 116.608Z" fill="#F4D8D5"/>
<path d="M220.669 147.471C218.449 147.224 210.554 149.693 210.554 149.693L211.294 167.718C211.294 167.718 217.709 199.568 217.462 203.272C217.462 207.469 210.554 243.271 210.554 243.271C212.281 244.259 221.163 244.999 221.163 244.999C221.163 244.999 220.916 226.234 222.643 218.827C224.37 211.42 224.617 205 224.617 205C224.617 205 225.85 196.853 224.617 192.902C223.383 188.952 225.11 174.384 226.097 171.668C227.577 168.952 222.89 147.718 220.669 147.471Z" fill="url(#paint5_linear)"/>
<path d="M226.344 117.102C226.344 116.114 225.604 113.892 223.383 114.386C221.41 114.88 220.176 117.102 220.423 119.077C220.67 121.052 221.903 123.027 222.89 122.781C223.877 122.287 222.15 120.311 222.15 119.077C222.397 117.842 223.383 116.855 224.123 117.349C225.11 118.089 226.097 118.089 226.344 117.102Z" fill="#DBB5BF"/>
<path d="M212.281 149.446C218.942 149.693 222.15 154.631 220.916 161.051C219.929 167.717 210.061 206.976 208.581 208.951C207.1 210.926 194.765 223.271 193.285 210.679C191.311 195.124 200.193 159.57 201.673 156.36C203.4 152.903 208.581 149.199 212.281 149.446Z" fill="#F4D8D5"/>
<path d="M223.136 124.756C223.63 132.41 216.722 151.669 231.278 157.841C231.278 157.841 213.268 167.964 198.219 160.557C198.219 160.557 203.647 129.2 204.14 126.484C204.88 123.768 223.136 124.756 223.136 124.756Z" fill="#000038"/>
<path d="M250.028 125.497C250.028 125.497 247.067 126.731 246.08 126.484C245.094 126.237 246.574 128.46 247.807 127.719C248.794 127.225 250.028 125.497 250.028 125.497Z" fill="#DBB5BF"/>
<path d="M254.962 215.371C254.962 215.371 209.815 201.544 205.127 201.791C200.44 202.038 190.818 211.667 195.506 215.124C201.427 219.815 253.235 222.778 253.235 222.778L254.962 215.371Z" fill="#F4D8D5"/>
<path d="M221.656 225L269.764 218.827L268.037 226.975L221.656 225Z" fill="white"/>
<path d="M264.584 226.728L325.767 229.197L334.649 186.976C335.142 185.001 333.909 183.273 331.935 183.273L276.426 181.05C274.945 181.05 273.712 182.038 273.465 183.519L264.584 226.728Z" fill="#9FB8FC"/>
<path d="M268.037 226.976L329.221 229.445L338.102 187.224C338.596 185.249 337.362 183.521 335.389 183.521L279.879 181.299C278.399 181.299 277.165 182.286 276.919 183.768L268.037 226.976Z" fill="#DBE6FD"/>
<path d="M262.61 231.419L328.974 234.135L329.468 229.444L262.856 226.728L262.61 231.419Z" fill="#9FB8FC"/>
<path d="M221.41 229.691L264.337 231.419L264.583 226.728L221.656 225L221.41 229.691Z" fill="#5E80FA"/>
<path d="M252.741 212.161C252.741 211.667 252.988 211.173 253.482 210.926C256.689 207.47 261.376 215.124 263.103 218.58C263.597 219.815 263.103 220.803 262.61 221.296C262.116 222.284 261.13 222.531 260.389 221.296C259.896 220.556 259.403 220.062 258.909 219.321C259.403 221.049 259.896 223.025 259.896 224.012C259.896 224.753 259.403 225.494 258.662 225.494C257.676 225.494 257.182 225 256.689 223.765C256.195 222.778 255.702 221.79 255.209 220.802C255.702 222.284 255.949 223.765 254.962 225C254.468 225.741 253.482 225.741 252.741 225C252.495 224.753 252.495 224.259 252.248 223.765C251.508 222.284 250.768 219.321 249.288 218.827C250.274 221.049 252.001 223.025 250.521 225.494C249.288 227.716 247.561 225.247 246.574 223.765C242.133 216.358 248.794 213.148 252.741 212.161Z" fill="#F4D8D5"/>
<g filter="url(#filter0_d)">
<path d="M176.768 48H13.2319C7.57468 48 3 52.5639 3 58.2077V125.551C3 131.195 7.57468 135.759 13.2319 135.759H141.987C147.19 143.005 156.653 156 157.492 156C158.26 156 156.758 143.737 155.711 135.759H176.803C182.46 135.759 187.035 131.195 187.035 125.551V58.2077C187 52.5639 182.425 48 176.768 48Z" fill="url(#paint6_linear)"/>
</g>
<path d="M38.0958 117.434C52.2521 117.434 63.728 105.985 63.728 91.8619C63.728 77.7391 52.2521 66.2903 38.0958 66.2903C23.9395 66.2903 12.4636 77.7391 12.4636 91.8619C12.4636 105.985 23.9395 117.434 38.0958 117.434Z" fill="white"/>
<path fill-rule="evenodd" clip-rule="evenodd" d="M50.17 101.661C47.1264 104.762 42.8819 106.685 38.1867 106.685C33.4974 106.685 29.2577 104.766 26.2148 101.673C27.5241 99.2777 29.9427 97.9991 32.9479 97.4248C33.0042 97.4097 33.0605 97.4022 33.1168 97.3947C33.1732 97.3872 33.2295 97.3797 33.2858 97.3646C33.314 97.3646 33.3351 97.3571 33.3562 97.3496C33.3774 97.3421 33.3985 97.3346 33.4267 97.3346C34.7223 97.1241 36.1305 97.0339 37.5951 97.0339H38.9471C39.8202 97.0339 40.6933 97.064 41.5101 97.1542C41.9607 97.1842 42.4114 97.2444 42.8338 97.3045L42.8998 97.3145L42.8998 97.3145C43.0802 97.3415 43.278 97.3713 43.4535 97.4248C44.4111 97.6052 45.3406 97.8758 46.1574 98.2065C46.6643 98.417 47.1431 98.6576 47.5938 98.9582C48.6702 99.6334 49.5474 100.521 50.17 101.661ZM44.4674 88.1037C44.4674 91.7902 41.668 94.7788 38.2147 94.7788C34.7615 94.7788 31.9621 91.7902 31.9621 88.1037C31.9621 84.4171 34.7615 81.4286 38.2147 81.4286C41.668 81.4286 44.4674 84.4171 44.4674 88.1037Z" fill="white"/>
<path d="M50.17 101.661L50.5268 102.012C50.6811 101.854 50.7144 101.615 50.6089 101.422L50.17 101.661ZM26.2148 101.673L25.7761 101.433C25.6704 101.627 25.7038 101.866 25.8584 102.024L26.2148 101.673ZM32.9479 97.4248L33.0417 97.9159C33.0535 97.9136 33.0652 97.911 33.0768 97.9079L32.9479 97.4248ZM33.1168 97.3947L33.0507 96.8991H33.0507L33.1168 97.3947ZM33.2858 97.3646V96.8646C33.2423 96.8646 33.199 96.8703 33.1569 96.8816L33.2858 97.3646ZM33.4267 97.3346V97.8346C33.4535 97.8346 33.4803 97.8324 33.5068 97.8281L33.4267 97.3346ZM41.5101 97.1542L41.4552 97.6511C41.4624 97.6519 41.4696 97.6526 41.4768 97.6531L41.5101 97.1542ZM42.8338 97.3045L42.9085 96.8101L42.9043 96.8095L42.8338 97.3045ZM42.8998 97.3145L42.8251 97.809L42.8378 97.8106L42.8998 97.3145ZM42.8998 97.3145L42.9741 96.8199L42.9618 96.8183L42.8998 97.3145ZM43.4535 97.4248L43.3076 97.903C43.3251 97.9084 43.3429 97.9127 43.3609 97.9161L43.4535 97.4248ZM46.1574 98.2065L46.3491 97.7447L46.345 97.7431L46.1574 98.2065ZM47.5938 98.9582L47.3162 99.3743L47.3281 99.3818L47.5938 98.9582ZM49.8132 101.311C46.8599 104.319 42.7425 106.185 38.1867 106.185V107.185C43.0213 107.185 47.3929 105.204 50.5268 102.012L49.8132 101.311ZM38.1867 106.185C33.6366 106.185 29.5238 104.324 26.5713 101.322L25.8584 102.024C28.9915 105.209 33.3582 107.185 38.1867 107.185V106.185ZM26.6536 101.913C27.8634 99.6993 30.1151 98.4752 33.0417 97.9159L32.854 96.9337C29.7704 97.523 27.1847 98.8561 25.7761 101.433L26.6536 101.913ZM33.0768 97.9079C33.0972 97.9024 33.1219 97.8985 33.183 97.8903L33.0507 96.8991C32.9991 96.906 32.9112 96.9171 32.8189 96.9417L33.0768 97.9079ZM33.183 97.8903C33.2346 97.8834 33.3225 97.8724 33.4148 97.8477L33.1569 96.8816C33.1365 96.887 33.1118 96.891 33.0507 96.8991L33.183 97.8903ZM33.2858 97.8646C33.4091 97.8646 33.5031 97.8281 33.5239 97.8207L33.1886 96.8786C33.1671 96.8862 33.2189 96.8646 33.2858 96.8646V97.8646ZM33.5239 97.8207C33.5454 97.813 33.4936 97.8346 33.4267 97.8346V96.8346C33.3034 96.8346 33.2094 96.8712 33.1886 96.8786L33.5239 97.8207ZM33.5068 97.8281C34.7694 97.623 36.1499 97.5339 37.5951 97.5339V96.5339C36.1112 96.5339 34.6751 96.6252 33.3465 96.841L33.5068 97.8281ZM37.5951 97.5339H38.9471V96.5339H37.5951V97.5339ZM38.9471 97.5339C39.8101 97.5339 40.6634 97.5637 41.4552 97.6511L41.565 96.6572C40.7232 96.5642 39.8302 96.5339 38.9471 96.5339V97.5339ZM41.4768 97.6531C41.9074 97.6818 42.3422 97.7396 42.7634 97.7995L42.9043 96.8095C42.4805 96.7492 42.0141 96.6867 41.5434 96.6553L41.4768 97.6531ZM42.7592 97.7989L42.8252 97.8089L42.9744 96.8201L42.9085 96.8101L42.7592 97.7989ZM42.8378 97.8106L42.8378 97.8106L42.9618 96.8183L42.9618 96.8183L42.8378 97.8106ZM42.8256 97.8089C43.0136 97.8372 43.1737 97.8622 43.3076 97.903L43.5994 96.9465C43.3823 96.8803 43.1467 96.8459 42.974 96.82L42.8256 97.8089ZM43.3609 97.9161C44.2884 98.0909 45.1858 98.3526 45.9697 98.67L46.345 97.7431C45.4954 97.399 44.5339 97.1195 43.5461 96.9334L43.3609 97.9161ZM45.9656 98.6683C46.4511 98.8699 46.8994 99.096 47.3163 99.3742L47.8713 98.5423C47.3869 98.2191 46.8775 97.9642 46.3491 97.7448L45.9656 98.6683ZM47.3281 99.3818C48.3384 100.015 49.1531 100.842 49.7312 101.901L50.6089 101.422C49.9418 100.2 49.0021 99.2513 47.8594 98.5347L47.3281 99.3818ZM38.2147 95.2788C41.9744 95.2788 44.9674 92.0351 44.9674 88.1037H43.9674C43.9674 91.5454 41.3616 94.2788 38.2147 94.2788V95.2788ZM31.4621 88.1037C31.4621 92.0351 34.455 95.2788 38.2147 95.2788V94.2788C35.0679 94.2788 32.4621 91.5454 32.4621 88.1037H31.4621ZM38.2147 80.9286C34.455 80.9286 31.4621 84.1723 31.4621 88.1037H32.4621C32.4621 84.662 35.0679 81.9286 38.2147 81.9286V80.9286ZM44.9674 88.1037C44.9674 84.1723 41.9744 80.9286 38.2147 80.9286V81.9286C41.3616 81.9286 43.9674 84.662 43.9674 88.1037H44.9674Z" fill="#BFC5D8"/>
<path d="M100.989 74.2684H70.8868C69.7344 74.2684 68.7566 73.3278 68.7566 72.1433V71.9342C68.7566 70.7846 69.6995 69.8091 70.8868 69.8091H100.989C102.141 69.8091 103.119 70.7497 103.119 71.9342V72.1433C103.084 73.3278 102.141 74.2684 100.989 74.2684Z" fill="white"/>
<path d="M89.849 86.009H70.8868C69.7344 86.009 68.7566 85.0684 68.7566 83.8839V83.6748C68.7566 82.5252 69.6995 81.5497 70.8868 81.5497H89.849C91.0014 81.5497 91.9792 82.4903 91.9792 83.6748V83.8839C91.9443 85.0684 91.0014 86.009 89.849 86.009Z" fill="white"/>
<path d="M122.396 86.009H98.0906C96.9382 86.009 95.9604 85.0684 95.9604 83.8839V83.6748C95.9604 82.5252 96.9033 81.5497 98.0906 81.5497H122.396C123.548 81.5497 124.526 82.4903 124.526 83.6748V83.8839C124.526 85.0684 123.548 86.009 122.396 86.009Z" fill="white"/>
<path d="M164.895 86.009H130.637C129.485 86.009 128.507 85.0684 128.507 83.8839V83.6748C128.507 82.5252 129.45 81.5497 130.637 81.5497H164.895C166.047 81.5497 167.025 82.4903 167.025 83.6748V83.8839C166.99 85.0684 166.047 86.009 164.895 86.009Z" fill="white"/>
<path d="M164.895 74.2684H110.907C109.754 74.2684 108.776 73.3278 108.776 72.1433V71.9342C108.776 70.7846 109.719 69.8091 110.907 69.8091H164.895C166.047 69.8091 167.025 70.7497 167.025 71.9342V72.1433C166.99 73.3278 166.047 74.2684 164.895 74.2684Z" fill="white"/>
<path d="M164.895 109.003H70.8519C69.6995 109.003 68.7217 108.062 68.7217 106.877V106.668C68.7217 105.484 69.6646 104.543 70.8519 104.543H164.86C166.012 104.543 166.99 105.484 166.99 106.668V106.877C166.99 108.062 166.047 109.003 164.895 109.003Z" fill="white"/>
<path d="M117.402 97.7496H70.8519C69.6995 97.7496 68.7217 96.809 68.7217 95.6245V95.4154C68.7217 94.2658 69.6646 93.2903 70.8519 93.2903H117.367C118.519 93.2903 119.497 94.2309 119.497 95.4154V95.6245C119.497 96.809 118.554 97.7496 117.402 97.7496Z" fill="white"/>
<defs>
<filter id="filter0_d" x="0" y="44" width="198.035" height="122" filterUnits="userSpaceOnUse" color-interpolation-filters="sRGB">
<feFlood flood-opacity="0" result="BackgroundImageFix"/>
<feColorMatrix in="SourceAlpha" type="matrix" values="0 0 0 0 0 0 0 0 0 0 0 0 0 0 0 0 0 0 127 0"/>
<feOffset dx="4" dy="3"/>
<feGaussianBlur stdDeviation="3.5"/>
<feColorMatrix type="matrix" values="0 0 0 0 0 0 0 0 0 0 0 0 0 0 0 0 0 0 0.1 0"/>
<feBlend mode="normal" in2="BackgroundImageFix" result="effect1_dropShadow"/>
<feBlend mode="normal" in="SourceGraphic" in2="effect1_dropShadow" result="shape"/>
</filter>
<linearGradient id="paint0_linear" x1="332.904" y1="362.374" x2="290.527" y2="349.65" gradientUnits="userSpaceOnUse">
<stop stop-color="#66CC66"/>
<stop offset="1" stop-color="#0099FF"/>
</linearGradient>
<linearGradient id="paint1_linear" x1="343.5" y1="352.5" x2="319.647" y2="363.828" gradientUnits="userSpaceOnUse">
<stop stop-color="#66CC66"/>
<stop offset="1" stop-color="#0099FF"/>
</linearGradient>
<linearGradient id="paint2_linear" x1="380.307" y1="363.253" x2="337.851" y2="347.619" gradientUnits="userSpaceOnUse">
<stop stop-color="#66CC66"/>
<stop offset="1" stop-color="#0099FF"/>
</linearGradient>
<linearGradient id="paint3_linear" x1="387.5" y1="344" x2="358.5" y2="361" gradientUnits="userSpaceOnUse">
<stop stop-color="#66CC66"/>
<stop offset="1" stop-color="#0099FF"/>
</linearGradient>
<linearGradient id="paint4_linear" x1="182.545" y1="136.843" x2="267.732" y2="227.718" gradientUnits="userSpaceOnUse">
<stop stop-color="#66CC66"/>
<stop offset="1" stop-color="#0099FF"/>
</linearGradient>
<linearGradient id="paint5_linear" x1="201.693" y1="191.493" x2="225.133" y2="198.068" gradientUnits="userSpaceOnUse">
<stop stop-color="#66CC66"/>
<stop offset="1" stop-color="#0099FF"/>
</linearGradient>
<linearGradient id="paint6_linear" x1="18.9065" y1="33.4286" x2="253.718" y2="164.764" gradientUnits="userSpaceOnUse">
<stop stop-color="#1ED1D4"/>
<stop offset="0.933499" stop-color="#2BEAC0"/>
</linearGradient>
<clipPath id="clip0">
<rect width="79" height="190" fill="white" transform="translate(255)"/>
</clipPath>
</defs>
</svg>
