<svg width="154" height="28" viewBox="0 0 154 28" fill="none" xmlns="http://www.w3.org/2000/svg">
<path d="M37.125 16.0754L35.0382 20.7367H33.7603L39.875 7.16772H41.2176L47.5426 20.7367H46.2162L44.0647 16.0754H37.125ZM43.5956 14.9739C41.7029 10.8872 40.8294 9.01949 40.522 8.15746H40.5059C40.2309 8.9716 39.1794 11.4459 37.6103 14.9739H43.5956Z" fill="#58595B"/>
<path d="M51.5221 8.25324H46.0706V7.16772H58.2029V8.26921H52.7515V20.7367H51.5382V8.25324H51.5221Z" fill="#58595B"/>
<path d="M83.9397 20.7208V7.15186H85.3956C88.0809 10.568 94.0339 17.9751 94.7618 19.2522H94.7942C94.6809 17.3047 94.6971 15.3731 94.6971 13.1861V7.16782H95.8618V20.7368H94.4706C92.028 17.6558 86.1074 10.0413 85.0397 8.4449H85.0074C85.1044 10.2328 85.1045 12.1484 85.1045 14.543V20.7368H83.9397V20.7208Z" fill="#58595B"/>
<path d="M100.181 16.8416C100.731 18.6455 102.041 19.9545 104.969 19.9545C107.978 19.9545 109.224 18.7093 109.224 17.2407C109.224 15.6922 108.399 14.7185 104.516 14.0799C100.715 13.4414 99.6632 12.308 99.6632 10.4402C99.6632 8.22131 101.766 6.88037 104.629 6.88037C108.965 6.88037 109.903 9.14719 110.049 10.4083H108.803C108.479 9.35472 107.832 7.94993 104.597 7.94993C102.413 7.94993 100.893 8.70021 100.893 10.3285C100.893 11.6056 101.459 12.4676 104.856 13.0263C109.676 13.8085 110.469 15.3091 110.469 17.1449C110.469 19.2042 108.787 21.024 104.904 21.024C101.313 21.024 99.3559 19.3798 98.9029 16.8576H100.181V16.8416Z" fill="#58595B"/>
<path d="M126.969 13.9043C126.969 17.7835 124.3 21.0081 119.9 21.0081C115.597 21.0081 112.766 17.8792 112.766 13.8884C112.766 10.105 115.613 6.88037 119.9 6.88037C124.074 6.88037 126.969 10.105 126.969 13.9043ZM114.044 13.8245C114.044 16.9214 116.115 19.9066 119.9 19.9066C123.572 19.9066 125.691 17.2726 125.691 13.9362C125.691 10.9032 123.572 7.96589 119.787 7.96589C116.293 7.96589 114.044 10.6637 114.044 13.8245Z" fill="#58595B"/>
<path d="M130.237 7.16772H140.234V8.25324H131.434V13.3775H139.635V14.479H131.434V20.7527H130.237V7.16772Z" fill="#58595B"/>
<path d="M147.319 8.25324H141.868V7.16772H154V8.26921H148.548V20.7367H147.335V8.25324H147.319Z" fill="#58595B"/>
<path d="M74.8 8.54069C77.8897 8.54069 80.4132 11.031 80.4132 14.08C80.4132 17.1291 77.8897 19.6194 74.8 19.6194H65.8059C62.7162 19.6194 60.1927 17.1291 60.1927 14.08C60.1927 11.031 62.7162 8.54069 65.8059 8.54069H74.8ZM74.8 7.43921H65.8059C62.0853 7.43921 59.0765 10.4084 59.0765 14.08C59.0765 17.7516 62.0853 20.7208 65.8059 20.7208H74.8C78.5206 20.7208 81.5294 17.7516 81.5294 14.08C81.5294 10.4084 78.5206 7.43921 74.8 7.43921Z" fill="#A7A9AC"/>
<path d="M74.8 8.54069C77.8897 8.54069 80.4132 11.031 80.4132 14.08C80.4132 17.1291 77.8897 19.6194 74.8 19.6194C71.7102 19.6194 69.1867 17.1291 69.1867 14.08C69.1867 11.031 71.7102 8.54069 74.8 8.54069ZM74.8 7.43921C71.0794 7.43921 68.0705 10.4084 68.0705 14.08C68.0705 17.7516 71.0794 20.7208 74.8 20.7208C78.5205 20.7208 81.5294 17.7516 81.5294 14.08C81.5294 10.4084 78.5205 7.43921 74.8 7.43921Z" fill="url(#paint0_linear)"/>
<path d="M14.2676 0C19.0396 9.35462 23.7794 18.6454 28.5352 27.984C21.6602 27.984 14.8499 27.984 7.99112 27.984C8.03965 27.8723 8.08818 27.7925 8.13671 27.7127C8.75141 26.7708 9.36612 25.813 9.98083 24.8552C10.1102 24.6636 10.2396 24.5838 10.4823 24.5838C14.4132 24.5838 18.3279 24.5838 22.2588 24.5838C22.3882 24.5838 22.5014 24.5838 22.6955 24.5838C22.6146 24.4242 22.5661 24.3124 22.5014 24.1847C19.1367 17.5758 15.7558 10.9669 12.3749 4.35804C12.2455 4.15051 12.2294 3.97491 12.3426 3.75143C12.9896 2.52223 13.6044 1.29304 14.2676 0Z" fill="url(#paint1_linear)"/>
<path d="M9.99706 8.38086C10.6765 9.73776 11.3397 11.0308 11.9706 12.3238C12.0191 12.4196 11.9706 12.6112 11.9221 12.7229C11.0809 14.3831 10.2397 16.0433 9.39853 17.6876C9.35 17.7834 9.30147 17.8951 9.23676 18.0388C9.39853 18.0388 9.52794 18.0388 9.64118 18.0388C11.0647 18.0388 12.4882 18.0388 13.8956 18.0388C14.1382 18.0388 14.2676 18.1186 14.3971 18.3102C14.9956 19.2839 15.6103 20.2577 16.2574 21.3113C16.0794 21.3113 15.95 21.3113 15.8368 21.3113C13.1838 21.3113 10.5309 21.3113 7.87794 21.3113C7.63529 21.3113 7.50588 21.3911 7.40882 21.5986C6.38971 23.642 5.33824 25.6693 4.31912 27.6967C4.20588 27.9202 4.07647 28 3.81765 28C2.66912 27.9841 1.50441 28 0.355882 28C0.258824 28 0.161765 27.9841 0 27.9841C3.33235 21.439 6.64853 14.9419 9.99706 8.38086Z" fill="url(#paint2_linear)"/>
<defs>
<linearGradient id="paint0_linear" x1="82.4663" y1="2.17029" x2="58.8029" y2="39.9375" gradientUnits="userSpaceOnUse">
<stop stop-color="#35FEB0"/>
<stop offset="1" stop-color="#0099FF"/>
</linearGradient>
<linearGradient id="paint1_linear" x1="31.2844" y1="2.64978" x2="-14.0002" y2="55.975" gradientUnits="userSpaceOnUse">
<stop stop-color="#35FEB0"/>
<stop offset="1" stop-color="#0099FF"/>
</linearGradient>
<linearGradient id="paint2_linear" x1="26.9641" y1="-1.01925" x2="-18.3207" y2="52.306" gradientUnits="userSpaceOnUse">
<stop stop-color="#35FEB0"/>
<stop offset="1" stop-color="#0099FF"/>
</linearGradient>
</defs>
</svg>
