<svg width="19" height="19" viewBox="0 0 19 19" fill="none" xmlns="http://www.w3.org/2000/svg">
<path d="M13.6557 19C13.0423 19 12.4342 18.8916 11.8396 18.6755C9.21982 17.7239 6.78814 16.1739 4.80732 14.1931C2.82651 12.2123 1.27651 9.78059 0.324882 7.16085C0.0190763 6.31895 -0.07117 5.44988 0.0567407 4.5777C0.176562 3.76073 0.493018 2.96763 0.971932 2.2841C1.45296 1.59757 2.09426 1.02655 2.82647 0.6328C3.60729 0.212925 4.45955 0 5.35964 0C5.63958 0 5.88152 0.195596 5.94019 0.469303L6.87212 4.81831C6.91431 5.01524 6.85379 5.22015 6.7114 5.36257L5.11899 6.95494C6.62119 9.9416 9.05873 12.3791 12.0454 13.8813L13.6378 12.2889C13.7802 12.1466 13.9851 12.0861 14.182 12.1282L18.531 13.0601C18.8048 13.1188 19.0003 13.3608 19.0003 13.6407C19.0003 14.5408 18.7874 15.3931 18.3675 16.1739C17.9737 16.9061 17.4027 17.5474 16.7162 18.0284C16.0327 18.5074 15.2396 18.8238 14.4226 18.9436C14.1666 18.9812 13.9106 19 13.6557 19ZM4.88525 1.21343C3.69799 1.34449 2.6442 1.96679 1.94442 2.96555C1.15751 4.08862 0.97401 5.46996 1.44097 6.75545C3.27054 11.7919 7.20846 15.7299 12.245 17.5594C13.5304 18.0264 14.9118 17.8429 16.0349 17.056C17.0336 16.3562 17.6559 15.3024 17.787 14.1152L14.2491 13.357L12.5861 15.0201C12.4091 15.197 12.1402 15.2441 11.9138 15.1376C8.38148 13.4782 5.52224 10.6189 3.86278 7.08664C3.75639 6.86017 3.80337 6.59128 3.98034 6.41435L5.64336 4.75133L4.88525 1.21343Z" fill="white"/>
</svg>
