<svg width="91" height="58" viewBox="0 0 91 58" fill="none" xmlns="http://www.w3.org/2000/svg">
<path d="M63.6726 5.44509C76.1844 5.44509 86.4035 15.9469 86.4035 28.8049C86.4035 41.6629 76.1844 52.1647 63.6726 52.1647H27.2508C14.739 52.1647 4.51996 41.6629 4.51996 28.8049C4.51996 15.9469 14.739 5.44509 27.2508 5.44509H63.6726ZM63.6726 0.800049H27.2508C12.1843 0.800049 0 13.3215 0 28.8049C0 44.2884 12.1843 56.8098 27.2508 56.8098H63.6726C78.7392 56.8098 90.9235 44.2884 90.9235 28.8049C90.9235 13.3215 78.7392 0.800049 63.6726 0.800049Z" fill="#A7A9AC"/>
<path d="M63.4235 5.52964C76.0497 5.52964 86.3621 16.0736 86.3621 28.9832C86.3621 41.8928 76.0497 52.4368 63.4235 52.4368C50.7973 52.4368 40.4848 41.8928 40.4848 28.9832C40.4848 16.0736 50.7973 5.52964 63.4235 5.52964ZM63.4235 0.865967C48.2191 0.865967 35.9235 13.4376 35.9235 28.9832C35.9235 44.5288 48.2191 57.1004 63.4235 57.1004C78.6278 57.1004 90.9235 44.5288 90.9235 28.9832C90.9235 13.4376 78.6278 0.865967 63.4235 0.865967Z" fill="url(#paint0_linear)"/>
<defs>
<linearGradient id="paint0_linear" x1="94.7523" y1="-21.4426" x2="-6.94747" y2="135.219" gradientUnits="userSpaceOnUse">
<stop stop-color="#35FEB0"/>
<stop offset="1" stop-color="#0099FF"/>
</linearGradient>
</defs>
</svg>
